<?xml version="1.0" encoding="utf-8"?>
<!-- Generator: Adobe Illustrator 23.0.6, SVG Export Plug-In . SVG Version: 6.00 Build 0)  -->
<svg version="1.1" id="Layer_1" xmlns="http://www.w3.org/2000/svg" xmlns:xlink="http://www.w3.org/1999/xlink" x="0px" y="0px"
	 width="362.5px" height="362.5px" viewBox="0 0 362.5 362.5" style="enable-background:new 0 0 362.5 362.5;" xml:space="preserve"
	>
<style type="text/css">
	.st0{fill:#360F2F;}
	.st1{fill:#F26522;}
	.st2{fill:#F58345;}
	.st3{fill:#EF4D86;}
	.st4{fill:#FFFFFF;}
	.st5{fill:#ED1164;}
</style>
<g>
	<circle class="st0" cx="181.2" cy="181.2" r="181.2"/>
	<g>
		<g id="XMLID_49_">
			<path id="XMLID_50_" class="st1" d="M175.5,116.9c13.4,0,26.6,5.5,26.6,27.6c0,32.6-26.4,50.6-55.4,50.6
				c-22.1,0-46.3-7.9-46.3-31c0-13.4,13.7-23.5,24-28.1v-0.5c-13.2,0-19.4-9.1-19.4-22.3c0-16.8,8.2-23.5,23.5-23.8V89
				c-10.8-7-18-14.4-18-27.4c0-21.4,18.5-37.4,39.8-37.4c11.3,0,21.4,3.4,28.1,10.3c4.3-4.8,10.3-10.3,18.5-10.3
				c7,0,12.2,3.8,12.2,10.8c0,5.8-4.6,8.4-9.6,8.4c-4.6,0-7.7-3.8-7.7-7.4c0-5,1.2-6.5,2.6-7.9c-4.8,0.2-10.6,4.3-13.7,8.9
				c5.3,5.8,9.4,14.9,9.4,24c0,19.9-21.1,35.3-39.8,35.3c-10.3,0-15.4-3.1-18-4.3c-13,0.2-23.5,3.8-23.5,15.1c0,6,4.8,9.8,10.6,9.8
				L175.5,116.9L175.5,116.9z M133.7,135.6c-14.4,3.1-21.8,11.5-21.8,27.6c0,20.2,17.3,28.1,36,28.1c24.5,0,48.5-15.6,48.5-39.6
				c0-12.5-10.1-16.1-22.6-16.1H133.7z M150.3,92.4c19.7,0,19.7-15.1,19.7-32.2C170,41,170,28,150.3,28s-19.7,19.4-19.7,32.2
				C130.6,75.6,130.6,92.4,150.3,92.4z"/>
		</g>
	</g>
	<g>
		<g id="XMLID_31_">
			<path id="XMLID_33_" class="st2" d="M224.5,49.4c25.8,0,42.4,21.4,42.4,44.4s-16.6,44.4-42.4,44.4s-42.4-21.4-42.4-44.4
				S198.7,49.4,224.5,49.4z M247.7,86c0-17.4-0.8-33.4-23.2-33.4s-23.2,16-23.2,33.4v15.6c0,17.4,0.8,33.4,23.2,33.4
				s23.2-16,23.2-33.4V86z"/>
		</g>
	</g>
	<g>
		<g id="XMLID_72_">
			<path id="XMLID_79_" class="st3" d="M143.5,198.2h-16l1.1-4.1l14.9,0.9c13.1-0.8,14.1-1.3,16.5-1.3c0.3,0,0,0,0,0.3l0.3,76.8h16
				v3.2h-48.8v-3.2h16V198.2z"/>
			<path id="XMLID_77_" class="st3" d="M184.1,195.2h-16.8l8.3-3.2h8.5c6.4,0,12.8-0.4,16.8-4.4v23.6h0.4c2.4-9,9.4-23.6,25.8-23.6
				c7.4,0,13.2,4.8,13.2,11.8c0,5.2-3.2,9.4-9.2,9.4c-6.6,0-8.8-3.4-8.8-8.8c0-4.4,2.2-7.4,4.4-8.6c-0.8-0.6-1.8-0.6-2.8-0.6
				c-8.2,0-23,13-23,39v41h18.2v3.2h-51.8v-3.2h16.8L184.1,195.2L184.1,195.2z"/>
			<path id="XMLID_75_" class="st3" d="M246.9,135.2L246.9,135.2L246.9,135.2V135c6.9-4.6,12.1-9.2,16.8-18.3v154.1h16v3.2h-48.8
				v-3.2h16L246.9,135.2L246.9,135.2z"/>
			<path id="XMLID_73_" class="st3" d="M277.9,244.9h2.6c1.6,10.2,6.8,28.2,27.8,28.2c11,0,19.4-7.2,19.4-18.6
				c0-15.8-12-16-22.6-17.2c-13-1.4-25.6-3.2-25.6-24c0-14.4,9.4-25.8,25-25.8c10.8,0,18.2,7,20.2,7c1.2,0,1.4-1.4,1.4-4.2v-1.6h2.8
				l0.8,23.8h-2.6c-1.4-11.4-7.4-21.8-23.2-21.8c-10.2,0-18.4,5.6-18.4,16s7.8,14,21,14.8l6.8,0.4c16.2,1,22.8,9.8,22.8,23.6
				c0,18.6-12.4,30.8-27.8,30.8c-15.8,0-20.6-8.6-24.6-8.6c-2.6,0-2,2.2-2.4,6.4l-6.5-0.2L277.9,244.9z"/>
		</g>
	</g>
	<g>
		<path class="st4" d="M159.6,291.9h-2.8v-10.1h7.2v2h-4.4v2.4h4v2h-4V291.9z"/>
		<path class="st4" d="M167.7,286.9c0-3.3,1.9-5.3,5.2-5.3s5.2,1.9,5.2,5.3c0,3.3-1.9,5.3-5.2,5.3
			C169.6,292.1,167.7,290.2,167.7,286.9z M173,283.6c-1.9,0-2.3,1.8-2.3,3.3s0.4,3.3,2.3,3.3c1.9,0,2.3-1.8,2.3-3.3
			C175.3,285.3,174.9,283.6,173,283.6z"/>
		<path class="st4" d="M192.3,281.8v6.4c0,2.8-2.3,3.9-4.8,3.9s-4.8-1.1-4.8-3.9v-6.4h2.8v6.3c0,1.3,0.7,2.1,2,2.1s2-0.8,2-2.1v-6.3
			H192.3z"/>
		<path class="st4" d="M197,281.8h3.9l3.4,7.5l0,0v-7.5h2.5v10.1h-3.9l-3.4-7.7l0,0v7.7H197V281.8z"/>
		<path class="st4" d="M215.7,281.8c3.5,0,5.8,1.3,5.8,5.1c0,3.7-2.3,5.1-5.8,5.1h-4.3v-10.1h4.3V281.8z M214.2,290h1.3
			c1.5,0,3-1,3-3.1s-1.4-3.1-3-3.1h-1.3V290z"/>
		<path class="st4" d="M225.1,291.9l4-10.1h3.4l4,10.1h-3.2l-0.7-2h-4.1l-0.7,2H225.1z M232,288l-1.3-4.2l0,0l-1.4,4.2H232z"/>
		<path class="st4" d="M241.6,283.8h-3.1v-2h9.1v2h-3.2v8.2h-2.8V283.8z"/>
		<path class="st4" d="M251.5,291.9v-10.1h2.8v10.1H251.5z"/>
		<path class="st4" d="M258.6,286.9c0-3.3,1.9-5.3,5.2-5.3c3.3,0,5.2,1.9,5.2,5.3c0,3.3-1.9,5.3-5.2,5.3
			C260.5,292.1,258.6,290.2,258.6,286.9z M263.8,283.6c-1.9,0-2.3,1.8-2.3,3.3s0.4,3.3,2.3,3.3s2.3-1.8,2.3-3.3
			C266.1,285.3,265.7,283.6,263.8,283.6z"/>
		<path class="st4" d="M273.4,281.8h3.9l3.4,7.5l0,0v-7.5h2.5v10.1h-3.9l-3.4-7.7l0,0v7.7h-2.5V281.8z"/>
	</g>
	<g>
		<g id="XMLID_38_">
			<path id="XMLID_39_" class="st5" d="M128.7,234.1c13.4,0,26.6,5.5,26.6,27.6c0,32.6-26.4,50.6-55.4,50.6
				c-22.1,0-46.3-7.9-46.3-31c0-13.4,13.7-23.5,24-28.1v-0.5c-13.2,0-19.4-9.1-19.4-22.3c0-16.8,8.2-23.5,23.5-23.8v-0.5
				c-10.8-7-18-14.4-18-27.4c0-21.4,18.5-37.4,39.8-37.4c11.3,0,21.4,3.4,28.1,10.3c4.3-4.8,10.3-10.3,18.5-10.3
				c7,0,12.2,3.8,12.2,10.8c0,5.8-4.6,8.4-9.6,8.4c-4.6,0-7.7-3.8-7.7-7.4c0-5,1.2-6.5,2.6-7.9c-4.8,0.2-10.6,4.3-13.7,8.9
				c5.3,5.8,9.4,14.9,9.4,24c0,19.9-21.1,35.3-39.8,35.3c-10.3,0-15.4-3.1-18-4.3c-13,0.2-23.5,3.8-23.5,15.1c0,6,4.8,9.8,10.6,9.8
				L128.7,234.1L128.7,234.1z M87,252.9c-14.4,3.1-21.8,11.5-21.8,27.6c0,20.2,17.3,28.1,36,28.1c24.5,0,48.5-15.6,48.5-39.6
				c0-12.5-10.1-16.1-22.6-16.1H87z M103.5,209.7c19.7,0,19.7-15.1,19.7-32.2c0-19.2,0-32.2-19.7-32.2s-19.7,19.4-19.7,32.2
				C83.9,192.9,83.9,209.7,103.5,209.7z"/>
		</g>
	</g>
</g>
<path class="st3" d="M324.8,176.9v-1h6.9v1h-2.9v7.6h-1.1v-7.6H324.8z M334.5,175.9l2.7,7.2l2.7-7.2h1.6v8.6h-1.1v-7.1h0l-2.7,7.1
	h-1l-2.7-7.1h0v7.1H333v-8.6H334.5z"/>
</svg>
